<svg id="Capa_1" data-name="Capa 1" xmlns="http://www.w3.org/2000/svg" xmlns:xlink="http://www.w3.org/1999/xlink" viewBox="0 0 281 60">
  <defs>
    <style>
      .cls-1 {
        fill: #93adc1;
      }

      .cls-1, .cls-10, .cls-3, .cls-4, .cls-5, .cls-6, .cls-7, .cls-8, .cls-9 {
        fill-rule: evenodd;
      }

      .cls-2, .cls-4 {
        fill: #fff;
      }

      .cls-3 {
        fill: url(#linear-gradient);
      }

      .cls-5 {
        fill: url(#linear-gradient-2);
      }

      .cls-6 {
        fill: url(#linear-gradient-3);
      }

      .cls-7 {
        fill: url(#linear-gradient-4);
      }

      .cls-8 {
        fill: url(#linear-gradient-5);
      }

      .cls-9 {
        fill: url(#linear-gradient-6);
      }

      .cls-10 {
        fill: url(#linear-gradient-7);
      }
    </style>
    <linearGradient id="linear-gradient" x1="61.42" y1="44.35" x2="11.05" y2="15.27" gradientUnits="userSpaceOnUse">
      <stop offset="0" stop-color="#312782"/>
      <stop offset="0.14" stop-color="#312782"/>
      <stop offset="0.35" stop-color="#0097c1"/>
      <stop offset="0.65" stop-color="#312782"/>
      <stop offset="0.83" stop-color="#0089b9"/>
      <stop offset="1" stop-color="#312782"/>
    </linearGradient>
    <linearGradient id="linear-gradient-2" x1="26.67" y1="8.99" x2="26.67" y2="42.27" gradientUnits="userSpaceOnUse">
      <stop offset="0" stop-color="#312782"/>
      <stop offset="0.21" stop-color="#2f2b84"/>
      <stop offset="0.39" stop-color="#2b358a"/>
      <stop offset="0.57" stop-color="#234894"/>
      <stop offset="0.74" stop-color="#1762a3"/>
      <stop offset="0.91" stop-color="#0982b5"/>
      <stop offset="1" stop-color="#0097c1"/>
    </linearGradient>
    <linearGradient id="linear-gradient-3" x1="57.29" y1="37.22" x2="32.11" y2="12.04" gradientUnits="userSpaceOnUse">
      <stop offset="0" stop-color="#312782"/>
      <stop offset="0.28" stop-color="#302a84"/>
      <stop offset="0.45" stop-color="#2c3288"/>
      <stop offset="0.61" stop-color="#254191"/>
      <stop offset="0.74" stop-color="#1c569d"/>
      <stop offset="0.87" stop-color="#1072ac"/>
      <stop offset="0.99" stop-color="#0293bf"/>
      <stop offset="1" stop-color="#0097c1"/>
    </linearGradient>
    <linearGradient id="linear-gradient-4" x1="36.41" y1="30.07" x2="42.89" y2="26.33" gradientUnits="userSpaceOnUse">
      <stop offset="0" stop-color="#0080b4"/>
      <stop offset="0.31" stop-color="#0a76ae"/>
      <stop offset="0.8" stop-color="#253f8f"/>
      <stop offset="1" stop-color="#312782"/>
    </linearGradient>
    <linearGradient id="linear-gradient-5" x1="35.96" y1="30.07" x2="29.48" y2="26.33" gradientUnits="userSpaceOnUse">
      <stop offset="0" stop-color="#0083b5"/>
      <stop offset="0.3" stop-color="#027cb2"/>
      <stop offset="1" stop-color="#312782"/>
    </linearGradient>
    <linearGradient id="linear-gradient-6" x1="36.18" y1="39.13" x2="36.18" y2="31.46" gradientUnits="userSpaceOnUse">
      <stop offset="0" stop-color="#312782"/>
      <stop offset="0.17" stop-color="#29378b"/>
      <stop offset="0.51" stop-color="#1560a2"/>
      <stop offset="0.81" stop-color="#0089b9"/>
      <stop offset="0.99" stop-color="#0089b9"/>
    </linearGradient>
    <linearGradient id="linear-gradient-7" x1="40.38" y1="50.86" x2="31.4" y2="35.31" gradientUnits="userSpaceOnUse">
      <stop offset="0" stop-color="#312782"/>
      <stop offset="0.33" stop-color="#302983"/>
      <stop offset="0.5" stop-color="#2d3188"/>
      <stop offset="0.64" stop-color="#273f8f"/>
      <stop offset="0.76" stop-color="#1e529a"/>
      <stop offset="0.87" stop-color="#136ba8"/>
      <stop offset="0.96" stop-color="#0689b9"/>
      <stop offset="1" stop-color="#0097c1"/>
    </linearGradient>
  </defs>
  <title>Logotalentum - svg</title>
  <g>
    <g>
      <g>
        <path class="cls-1" d="M36.18,1.09A28.91,28.91,0,1,0,65.31,30,29,29,0,0,0,36.18,1.09Zm0,52.56A23.76,23.76,0,1,1,59.94,29.89,23.76,23.76,0,0,1,36.18,53.65Z"/>
        <path class="cls-2" d="M36.18,59.84A29.84,29.84,0,1,1,66.24,30,30,30,0,0,1,36.18,59.84ZM36.18,2a28,28,0,1,0,28.2,28A28.14,28.14,0,0,0,36.18,2Zm0,52.57A24.69,24.69,0,1,1,60.87,29.89,24.72,24.72,0,0,1,36.18,54.58Zm0-47.52A22.84,22.84,0,1,0,59,29.89,22.86,22.86,0,0,0,36.18,7.06Z"/>
      </g>
      <path class="cls-3" d="M36.23.9A28.92,28.92,0,1,0,65.36,29.81,29,29,0,0,0,36.23.9Zm0,52.57A23.77,23.77,0,1,1,60,29.7,23.77,23.77,0,0,1,36.23,53.47Z"/>
      <polygon class="cls-4" points="35.04 6.38 16.34 42.59 17.64 44.41 54.73 44.41 55.94 42.77 37.53 6.38 35.04 6.38"/>
      <polygon class="cls-5" points="35.69 7.14 35.69 13.62 22.72 39.13 17.64 42.48 35.69 7.14"/>
      <polygon class="cls-6" points="36.68 7.14 36.68 13.52 49.53 38.92 54.82 42.48 36.68 7.14"/>
      <polygon class="cls-7" points="36.68 15.57 36.68 30.54 47.8 37.84 36.68 15.57"/>
      <polygon class="cls-8" points="35.69 15.57 35.69 30.54 24.56 37.84 35.69 15.57"/>
      <polygon class="cls-9" points="24.56 39.13 36.09 31.46 47.8 39.13 24.56 39.13"/>
      <polygon class="cls-10" points="23.05 40 49.2 40 54.82 43.67 17.64 43.67 23.05 40"/>
    </g>
    <g>
      <path class="cls-4" d="M84.25,15.82a3.09,3.09,0,0,0-1-.75,2.77,2.77,0,0,0-1.16-.24,2.54,2.54,0,0,0-1,.21,2.58,2.58,0,0,0-.84.58,2.5,2.5,0,0,0-.56.86,3,3,0,0,0-.19,1.05,3.22,3.22,0,0,0,.11.84,2.67,2.67,0,0,0,.34.7,2.76,2.76,0,0,0,1,.85,2.67,2.67,0,0,0,2.38,0,2.92,2.92,0,0,0,1-.77v1a3.73,3.73,0,0,1-1,.53,4.05,4.05,0,0,1-1.15.17,3.32,3.32,0,0,1-1-.15,3.54,3.54,0,0,1-.92-.44,3.29,3.29,0,0,1-1.45-2.79A3.51,3.51,0,0,1,79,16.18a3.15,3.15,0,0,1,.76-1.11,3.38,3.38,0,0,1,1.1-.72,3.5,3.5,0,0,1,1.31-.23,3.32,3.32,0,0,1,1.09.17,4,4,0,0,1,1,.52v1Zm17.62,4.38a2.67,2.67,0,0,0,1-.2,2.75,2.75,0,0,0,1.45-1.45,2.74,2.74,0,0,0,.2-1,2.78,2.78,0,0,0-.2-1A2.67,2.67,0,0,0,100.85,15a2.61,2.61,0,0,0-.86.58,2.94,2.94,0,0,0-.58.87,2.78,2.78,0,0,0-.2,1,2.69,2.69,0,0,0,.2,1,2.76,2.76,0,0,0,.58.87,2.62,2.62,0,0,0,1.88.79Zm3.46-2.68a3.32,3.32,0,0,1-.25,1.31,3.17,3.17,0,0,1-.75,1.1,3.69,3.69,0,0,1-1.13.74,3.57,3.57,0,0,1-1.33.25,3.48,3.48,0,0,1-1.32-.25,3.69,3.69,0,0,1-1.13-.74,3.26,3.26,0,0,1-.75-1.1,3.19,3.19,0,0,1-.26-1.31,3.23,3.23,0,0,1,.26-1.31,3.26,3.26,0,0,1,.75-1.1,3.54,3.54,0,0,1,1.13-.73,3.48,3.48,0,0,1,1.32-.25,3.5,3.5,0,0,1,2.46,1,3.26,3.26,0,0,1,.75,1.1,3.39,3.39,0,0,1,.25,1.31Zm14.4,3.23V14.27h1.53a4.4,4.4,0,0,1,.95.07,1.53,1.53,0,0,1,.53.25,1.48,1.48,0,0,1,.45.61,2.06,2.06,0,0,1,.16.84,1.6,1.6,0,0,1-.44,1.21,1.9,1.9,0,0,1-1.31.41h-.14l2.48,3.09h-1l-2.37-3.09h-.1v3.09Zm.76-5.83v2.17h.58a2.19,2.19,0,0,0,1.21-.23,1,1,0,0,0,.31-.81,1.07,1.07,0,0,0-.32-.88,2.09,2.09,0,0,0-1.2-.25Zm18,2.92v2.91h-.75V14.27h1.36a5.15,5.15,0,0,1,1,.08,1.74,1.74,0,0,1,.59.24,1.56,1.56,0,0,1,.48.61,2.12,2.12,0,0,1,0,1.71,1.52,1.52,0,0,1-.48.6,1.59,1.59,0,0,1-.59.26,5.32,5.32,0,0,1-1,.07h-.61Zm0-.7h.39a2.59,2.59,0,0,0,1.34-.23.89.89,0,0,0,.34-.81,1,1,0,0,0-.35-.87,2.43,2.43,0,0,0-1.33-.25h-.39v2.16Zm20.16,3.06a2.67,2.67,0,0,0,1-.2,2.64,2.64,0,0,0,.86-.59,2.47,2.47,0,0,0,.58-.86,2.56,2.56,0,0,0,.2-1,2.59,2.59,0,0,0-.2-1,2.55,2.55,0,0,0-.58-.87,2.61,2.61,0,0,0-.86-.58,2.67,2.67,0,0,0-1-.2,2.78,2.78,0,0,0-1,.2,2.57,2.57,0,0,0-.85.58,2.66,2.66,0,0,0-.78,1.9,2.69,2.69,0,0,0,.2,1,2.6,2.6,0,0,0,.58.87,2.63,2.63,0,0,0,.87.59,2.6,2.6,0,0,0,1,.2Zm3.46-2.68a3.33,3.33,0,0,1-.26,1.31,3.28,3.28,0,0,1-.74,1.1,3.61,3.61,0,0,1-1.14.74,3.61,3.61,0,0,1-2.64,0,3.57,3.57,0,0,1-1.13-.74,3.45,3.45,0,0,1-.76-1.1,3.37,3.37,0,0,1-.26-1.31,3.4,3.4,0,0,1,.26-1.31,3.45,3.45,0,0,1,.76-1.1,3.5,3.5,0,0,1,1.12-.73,3.66,3.66,0,0,1,2.66,0,3.66,3.66,0,0,1,1.13.73,3.38,3.38,0,0,1,1,2.41Zm14.4,3.23V14.27H178a4.51,4.51,0,0,1,1,.07,1.53,1.53,0,0,1,.53.25,1.57,1.57,0,0,1,.45.61,2.24,2.24,0,0,1,.16.84,1.57,1.57,0,0,1-.45,1.21,1.88,1.88,0,0,1-1.3.41h-.14l2.48,3.09h-1l-2.37-3.09h-.11v3.09Zm.75-5.83v2.17h.59a2.21,2.21,0,0,0,1.21-.23,1,1,0,0,0,.3-.81,1.07,1.07,0,0,0-.31-.88,2.09,2.09,0,0,0-1.2-.25Zm19.29.8-1,2.38h2.06l-1-2.38Zm0-1.7,2.94,6.73h-.83l-.84-2h-2.53l-.85,2h-.83L196.53,14Zm21.85,1.8a3.09,3.09,0,0,0-1-.75,2.77,2.77,0,0,0-1.16-.24,2.54,2.54,0,0,0-1,.21,2.56,2.56,0,0,0-1.4,1.44,2.76,2.76,0,0,0-.19,1.05,3.22,3.22,0,0,0,.11.84,3,3,0,0,0,.33.7,2.79,2.79,0,0,0,1,.85,2.67,2.67,0,0,0,2.38,0,2.92,2.92,0,0,0,1-.77v1a3.79,3.79,0,0,1-1,.53,4,4,0,0,1-1.15.17,3.41,3.41,0,0,1-1-.15,3.64,3.64,0,0,1-.91-.44,3.33,3.33,0,0,1-1.46-2.79,3.51,3.51,0,0,1,.26-1.36,3.15,3.15,0,0,1,.76-1.11,3.28,3.28,0,0,1,1.1-.72,3.5,3.5,0,0,1,1.31-.23,3.32,3.32,0,0,1,1.09.17,4,4,0,0,1,1,.52v1Zm14.46,4.93V14.27h.77v6.48Zm18.64-.55a2.64,2.64,0,0,0,1-.2,2.79,2.79,0,0,0,.87-.59,2.61,2.61,0,0,0,.58-.86,2.74,2.74,0,0,0,.2-1,2.78,2.78,0,0,0-.2-1,2.71,2.71,0,0,0-.58-.87,2.61,2.61,0,0,0-.86-.58,2.7,2.7,0,0,0-2,0,2.47,2.47,0,0,0-.85.58,2.66,2.66,0,0,0-.78,1.9,2.68,2.68,0,0,0,.19,1,2.63,2.63,0,0,0,.59.87,2.57,2.57,0,0,0,1.87.79ZM255,17.52a3.33,3.33,0,0,1-.26,1.31,3.17,3.17,0,0,1-.75,1.1,3.57,3.57,0,0,1-3.78.74,3.69,3.69,0,0,1-1.13-.74,3.26,3.26,0,0,1-.75-1.1,3.37,3.37,0,0,1-.26-1.31,3.4,3.4,0,0,1,.26-1.31,3.26,3.26,0,0,1,.75-1.1,3.59,3.59,0,0,1,3.78-.73,3.44,3.44,0,0,1,1.13.73,3.26,3.26,0,0,1,.75,1.1,3.4,3.4,0,0,1,.26,1.31Zm14.4,3.23V14l4.74,5.17V14.27h.73V21l-4.74-5.13v4.87Z"/>
      <path class="cls-4" d="M108,29.06h11.94a4.6,4.6,0,0,1,4.59,4.59V45.83H119V35.19A2.22,2.22,0,0,0,116.83,33h-5.74a2.21,2.21,0,0,0-2.21,2.21v.52h7.88v3.62h-7.88v6.5h-5.49V33.65a4.61,4.61,0,0,1,4.6-4.59Zm89.75,0H219.3v4h-8V45.7h-5.62V33h-8v-4Zm59,16.76h5.71V35.69h-5.71V45.84Zm16.54.13h-5.44V35.09A2.12,2.12,0,0,0,265.76,33h-11.7A2.12,2.12,0,0,0,252,35.09V46h-5.43V34.1a5,5,0,0,1,4.9-5h17a5,5,0,0,1,4.91,5V46ZM221.44,29.12V41a5,5,0,0,0,4.91,5h11.42a5,5,0,0,0,4.91-5V29.12h-5.44V40a2.12,2.12,0,0,1-2.11,2.11H229A2.12,2.12,0,0,1,226.88,40V29.12ZM195.63,46V34.1a5,5,0,0,0-4.9-5H179.3a5,5,0,0,0-4.9,5V46h5.44V35.09A2.11,2.11,0,0,1,182,33h6.14a2.12,2.12,0,0,1,2.11,2.11V46ZM154.7,29.12h17.05v4.09H151.19v-.58a3.52,3.52,0,0,1,3.51-3.51Zm17.05,10.41V35.44H150.89v4.09ZM154.7,46h17.05V41.88H151.19v.57A3.52,3.52,0,0,0,154.7,46Zm-23.38-.14h17V41.88H134.49a2.25,2.25,0,0,1-2.25-2.25V29.06h-5.18V41.57a4.28,4.28,0,0,0,4.26,4.26ZM79.5,29.08h21.57v4h-8V45.7H87.47V33h-8Z"/>
      <rect class="cls-2" x="78.74" y="23.2" width="196.14" height="1.17"/>
    </g>
  </g>
</svg>
